<?xml version="1.0" standalone="no"?>
<!DOCTYPE svg PUBLIC "-//W3C//DTD SVG 20010904//EN"
 "http://www.w3.org/TR/2001/REC-SVG-20010904/DTD/svg10.dtd">
<svg version="1.0" xmlns="http://www.w3.org/2000/svg"
 width="700.000000pt" height="700.000000pt" viewBox="0 0 700.000000 700.000000"
 preserveAspectRatio="xMidYMid meet">
<metadata>
Created by potrace 1.14, written by Peter Selinger 2001-2017
</metadata>
<g transform="translate(0.000000,700.000000) scale(0.100000,-0.100000)"
fill="#000000" stroke="none">
<path d="M1089 6973 c0 -16 -2 -44 -4 -63 -22 -227 -22 -747 0 -812 2 -7 6
-26 9 -43 10 -72 68 -314 113 -480 159 -579 399 -1094 662 -1419 31 -38 67
-83 81 -100 47 -58 195 -198 271 -256 136 -104 226 -156 414 -240 11 -5 55
-20 99 -33 77 -24 83 -33 29 -43 -41 -8 -238 -91 -312 -131 -540 -297 -954
-926 -1224 -1858 -32 -110 -99 -375 -111 -435 -3 -14 -10 -50 -15 -80 -6 -30
-13 -66 -16 -80 -19 -97 -24 -445 -10 -660 11 -167 14 -204 14 -222 1 -17 123
-18 2411 -18 l2410 0 1 33 c1 17 2 46 4 62 23 215 23 694 0 805 -3 14 -8 41
-11 60 -26 157 -132 556 -209 786 -312 928 -799 1522 -1409 1721 -47 15 -86
30 -86 33 0 3 39 19 88 34 697 227 1229 971 1532 2141 61 236 96 408 107 530
11 125 4 567 -11 685 -2 14 -4 44 -5 68 l-1 42 -2410 0 -2410 0 -1 -27z m4303
-613 c-3 -129 -9 -176 -39 -305 -14 -60 -26 -117 -28 -125 -59 -288 -240 -806
-358 -1025 l-32 -60 -1420 0 c-781 0 -1429 1 -1439 4 -34 7 -166 305 -259 581
-109 323 -202 715 -206 865 -2 44 -4 96 -5 115 -1 19 -1 38 1 43 2 4 856 6
1896 5 l1892 -3 -3 -95z m-630 -1796 c-17 -30 -135 -173 -175 -212 l-44 -43
-1043 0 -1044 1 -44 42 c-39 39 -157 182 -174 212 -6 10 257 12 1262 12 996 0
1267 -3 1262 -12z m-738 -549 c-120 -37 -235 -121 -298 -218 l-18 -27 -208 0
-208 0 -22 34 c-54 89 -199 189 -320 221 -37 10 65 13 550 12 l595 0 -71 -22z
m-388 -537 c3 -128 71 -275 170 -369 71 -65 127 -95 265 -140 67 -21 149 -53
183 -70 277 -141 529 -428 726 -831 66 -133 176 -400 184 -448 1 -6 -3303 -8
-3320 -2 -16 5 76 242 159 414 140 289 285 500 456 660 145 138 265 209 460
274 75 25 160 60 190 77 69 41 159 140 196 214 29 58 64 193 59 226 -2 15 10
17 135 17 135 0 137 0 137 -22z m1646 -2233 c15 -55 29 -115 30 -134 l3 -34
-1815 0 -1815 0 3 34 c3 42 53 222 63 229 4 3 794 5 1756 5 l1747 0 28 -100z
m103 -468 c3 -18 6 -78 8 -134 l2 -103 -112 0 c-62 0 -403 -1 -758 -1 -355 0
-1157 1 -1783 1 l-1138 0 2 48 c1 26 3 81 5 122 1 41 4 81 6 87 4 10 401 13
1884 12 l1878 0 6 -32z"/>
<path d="M3453 2811 c-62 -38 -147 -194 -185 -338 -4 -18 -13 -50 -18 -70 -6
-21 -13 -70 -16 -110 -6 -61 -3 -78 16 -117 96 -199 400 -205 496 -8 45 92 6
307 -92 503 -67 135 -133 181 -201 140z"/>
</g>
</svg>
