<svg width="918" height="252" viewBox="0 0 918 252" fill="none" xmlns="http://www.w3.org/2000/svg">
<path d="M97.0004 170.517C97.0004 175.25 92.5235 179.308 87.3004 179.308C82.0774 179.308 77.6004 175.25 77.6004 170.517C77.6004 165.784 82.0774 150.231 87.3004 150.231C92.5235 150.231 97.0004 165.784 97.0004 170.517Z" fill="#D8DDCF"/>
<path fill-rule="evenodd" clip-rule="evenodd" d="M173.639 0H0.961003C0.961003 0 -1.20125 23.1301 0.961003 33.9231C7.87558 68.4375 20.488 98.026 40.2706 114.314C47.0117 119.864 54.5854 123.87 63.0499 126C54.5854 128.13 47.0117 132.136 40.2706 137.686C20.488 153.974 7.87558 183.563 0.961003 218.077C-1.20125 228.87 0.961003 252 0.961003 252H173.639C173.639 252 175.801 228.87 173.639 218.077C166.724 183.563 154.112 153.974 134.329 137.686C127.588 132.136 120.014 128.13 111.55 126C120.014 123.87 127.588 119.864 134.329 114.314C154.112 98.026 166.724 68.4375 173.639 33.9231C175.801 23.1301 173.639 0 173.639 0ZM67.7877 144.798C76.408 142.628 82.4499 134.882 82.4499 126H92.1499C92.1499 134.882 98.1918 142.628 106.812 144.798C117.244 147.423 126.777 154.805 135.19 168.157C139.745 175.384 143.74 184.028 147.14 193.846L27.4603 193.846C30.8598 184.028 34.8552 175.384 39.4095 168.157C47.823 154.805 57.3558 147.423 67.7877 144.798ZM24.4054 203.538C23.5074 206.674 22.6633 209.907 21.8739 213.231L152.726 213.231C151.937 209.907 151.092 206.674 150.194 203.538L24.4054 203.538ZM19.8132 222.923L154.787 222.923C155.084 225.133 155.22 228.563 155.195 232.615H19.4052C19.3794 228.563 19.5155 225.133 19.8132 222.923ZM94.7484 116.308H79.8514C77.2925 111.882 73.0139 108.517 67.7877 107.202C67.0942 107.028 66.4047 106.832 65.7192 106.615L108.881 106.615C108.195 106.832 107.506 107.028 106.812 107.202C101.586 108.517 97.3074 111.882 94.7484 116.308ZM138.834 77.5385L35.766 77.5384C29.0144 64.8221 23.7038 48.6878 19.9836 30.1181C19.5678 28.0429 19.3749 24.1436 19.4052 19.3846H155.195C155.225 24.1436 155.032 28.0429 154.616 30.1181C150.896 48.6878 145.585 64.8221 138.834 77.5385ZM132.943 87.2308C130.308 90.9994 127.569 94.2186 124.734 96.9231L49.8661 96.9231C47.0308 94.2186 44.2922 90.9994 41.6568 87.2308L132.943 87.2308Z" fill="#D8DDCF"/>
<path d="M540.944 112.276C563.603 112.276 575.088 99.5594 580.054 76.608C580.365 75.2123 578.968 74.1268 577.571 74.1268H564.534C562.827 74.1268 561.12 75.5225 560.654 77.2283C557.705 88.3939 552.429 93.5114 542.03 93.5114C535.667 93.5114 531.166 90.72 528.993 86.0677C527.907 83.7415 527.441 81.1052 527.441 78.3138C527.441 67.3034 533.184 34.1169 541.099 24.5022C544.358 20.6252 548.393 18.7643 554.601 18.7643C565.465 18.7643 570.432 24.0369 569.656 34.8923C569.345 37.0634 570.742 38.1489 572.139 38.1489H584.71C586.417 38.1489 588.125 37.2185 588.28 34.7372C589.832 11.1655 575.553 0 555.843 0C543.117 0 534.425 3.87692 528.217 10.7003C515.491 24.3471 508.352 62.3409 508.352 79.8646C508.352 85.9126 509.438 91.0302 511.611 95.3723C516.577 106.228 527.286 112.276 540.944 112.276Z" fill="#D8DDCF"/>
<path fill-rule="evenodd" clip-rule="evenodd" d="M225.235 110.415H237.806C239.358 110.415 241.22 109.019 241.531 107.313L249.291 70.4049C249.446 69.6295 250.222 68.8542 251.153 68.8542H265.431C291.66 68.8542 305.628 51.3305 305.628 32.4111C305.628 13.9569 293.678 1.86092 273.967 1.86092H248.359C246.652 1.86092 244.79 3.25661 244.479 4.96246L222.751 107.313C222.441 108.709 223.217 110.415 225.235 110.415ZM253.947 48.8492L259.689 21.8658C259.844 20.9354 260.775 20.3151 261.551 20.3151H273.657C281.883 20.3151 286.228 25.7428 286.228 33.0314C286.228 41.8708 280.486 50.4 267.759 50.4H255.188C254.102 50.4 253.791 49.6246 253.947 48.8492Z" fill="#D8DDCF"/>
<path d="M347.964 112.276C367.053 112.276 381.176 101.886 386.298 77.5385L401.663 4.96246C401.973 3.25661 400.887 1.86092 399.18 1.86092H386.608C384.901 1.86092 383.194 3.25661 382.884 4.96246L367.519 77.5385C365.346 87.6185 359.293 93.5114 349.05 93.5114C339.583 93.5114 333.22 87.6185 335.393 77.5385L350.757 4.96246C351.068 3.25661 349.981 1.86092 348.274 1.86092H335.703C333.996 1.86092 332.288 3.25661 331.978 4.96246L316.613 77.5385C311.802 99.8695 327.943 112.276 347.964 112.276Z" fill="#D8DDCF"/>
<path d="M421.19 110.415H408.619C406.912 110.415 405.825 109.019 406.136 107.313L427.864 4.96246C428.174 3.25661 429.881 1.86092 431.589 1.86092H445.867C447.885 1.86092 448.661 2.79139 448.971 4.49723L461.852 69.7846C462.008 71.1803 464.025 70.8701 464.336 69.4745L477.993 4.96246C478.304 3.25661 480.011 1.86092 481.718 1.86092H494.289C495.996 1.86092 497.083 3.25661 496.772 4.96246L475.044 107.313C474.734 109.019 473.027 110.415 471.32 110.415H457.041C455.024 110.415 454.248 109.484 453.937 107.778L441.056 42.4911C440.9 41.0954 438.883 41.4055 438.572 42.8012L424.915 107.313C424.605 109.019 422.897 110.415 421.19 110.415Z" fill="#D8DDCF"/>
<path d="M624.035 110.415H611.464C609.757 110.415 608.67 109.019 608.981 107.313L627.139 22.176C627.294 21.2455 626.829 20.6252 625.898 20.6252H605.411C603.704 20.6252 602.617 19.2295 602.928 17.5237L605.721 4.96246C606.032 3.25661 607.739 1.86092 609.446 1.86092H672.147C673.854 1.86092 674.941 3.25661 674.63 4.96246L671.992 17.5237C671.681 19.2295 669.974 20.6252 668.267 20.6252H647.781C646.849 20.6252 646.074 21.2455 645.918 22.176L627.76 107.313C627.449 109.019 625.742 110.415 624.035 110.415Z" fill="#D8DDCF"/>
<path d="M707.761 112.276C726.85 112.276 740.973 101.886 746.095 77.5385L761.46 4.96246C761.77 3.25661 760.684 1.86092 758.976 1.86092H746.405C744.698 1.86092 742.991 3.25661 742.681 4.96246L727.316 77.5385C725.143 87.6185 719.09 93.5114 708.847 93.5114C699.38 93.5114 693.017 87.6185 695.189 77.5385L710.554 4.96246C710.865 3.25661 709.778 1.86092 708.071 1.86092H695.5C693.793 1.86092 692.085 3.25661 691.775 4.96246L676.41 77.5385C671.599 99.8695 687.74 112.276 707.761 112.276Z" fill="#D8DDCF"/>
<path fill-rule="evenodd" clip-rule="evenodd" d="M772.761 110.415H758.173C755.845 110.415 755.224 108.244 756.155 106.383L807.836 4.34215C808.613 2.6363 809.699 1.86092 811.251 1.86092H828.478C829.875 1.86092 830.961 2.6363 831.117 4.34215L839.187 106.383C839.342 108.244 838.1 110.415 835.617 110.415H822.27C820.873 110.415 819.942 109.639 819.787 108.089L818.39 87.7735C818.39 86.5329 818.08 85.7575 816.838 85.7575H788.747C787.661 85.7575 787.04 86.3778 786.419 87.6185L776.176 108.089C775.4 109.639 774.313 110.415 772.761 110.415ZM813.268 29.1545L795.886 65.9077C795.421 66.9932 795.731 67.9237 796.817 67.9237H816.217C817.148 67.9237 818.08 66.9932 818.08 65.9077L815.752 29.1545C815.752 27.9138 814.045 27.7588 813.268 29.1545Z" fill="#D8DDCF"/>
<path d="M858.971 110.415H911.584C913.291 110.415 914.998 109.019 915.309 107.313L917.947 94.752C918.258 93.0462 917.171 91.6505 915.464 91.6505H880.078C879.147 91.6505 878.682 91.0302 878.837 90.0997L896.995 4.96246C897.305 3.25661 896.219 1.86092 894.512 1.86092H881.941C880.234 1.86092 878.526 3.25661 878.216 4.96246L856.488 107.313C856.178 109.019 857.264 110.415 858.971 110.415Z" fill="#D8DDCF"/>
<path d="M300.984 217.728C295.862 237.888 287.016 252 262.96 252C249.147 252 239.369 245.797 235.024 235.407C233.161 231.22 232.385 226.567 232.385 221.295C232.385 203.926 239.99 164.537 252.406 150.735C258.304 143.911 266.684 140.034 278.635 140.034C298.035 140.034 311.692 150.89 310.14 173.841C309.985 176.012 308.123 176.788 306.571 176.788H300.208C298.811 176.788 297.569 175.702 297.724 173.531C298.656 159.109 292.448 152.286 278.014 152.286C270.254 152.286 264.977 154.612 260.942 159.419C251.164 171.205 244.956 208.113 244.956 220.83C244.956 224.086 245.577 227.188 246.664 229.824C249.302 235.872 255.044 239.749 263.58 239.749C277.393 239.749 284.222 233.391 288.412 218.348C288.878 216.642 290.275 215.247 292.137 215.247H298.5C299.897 215.247 301.294 216.332 300.984 217.728Z" fill="#D8DDCF"/>
<path fill-rule="evenodd" clip-rule="evenodd" d="M385.428 241.3C379.375 248.123 370.994 252 359.044 252C345.542 252 336.074 246.107 331.574 236.182C329.556 231.84 328.47 227.033 328.47 221.295C328.47 204.546 335.764 164.847 348.49 150.735C354.388 143.911 362.769 140.034 374.719 140.034C388.222 140.034 397.689 145.927 402.19 155.852C404.207 160.194 405.294 165.002 405.294 170.74C405.294 187.488 397.844 227.033 385.428 241.3ZM357.026 159.419C347.559 170.895 341.041 207.493 341.041 220.83C341.041 224.241 341.662 227.343 342.903 230.134C345.542 235.872 351.129 239.749 359.665 239.749C367.58 239.749 372.702 237.423 376.737 232.615C386.359 221.295 392.722 184.542 392.722 171.205C392.722 167.948 392.102 164.692 390.86 161.9C388.222 156.162 382.634 152.286 374.098 152.286C366.338 152.286 361.062 154.612 357.026 159.419Z" fill="#D8DDCF"/>
<path d="M425.845 250.294H431.898C433.605 250.294 435.313 248.898 435.623 247.193L445.09 202.53C445.245 201.6 446.021 200.98 446.953 200.98H482.804C484.511 200.98 486.218 199.584 486.529 197.878L487.77 192.14C488.236 190.434 487.149 189.039 485.442 189.039H449.591C448.66 189.039 448.039 188.418 448.349 187.488L455.178 155.387C455.333 154.457 456.109 153.836 457.041 153.836H494.599C496.306 153.836 498.013 152.441 498.324 150.735L499.41 144.842C499.721 143.136 498.634 141.74 496.927 141.74H448.815C447.108 141.74 445.401 143.136 445.09 144.842L423.362 247.193C423.052 248.898 424.138 250.294 425.845 250.294Z" fill="#D8DDCF"/>
<path d="M512.523 250.294H506.471C504.763 250.294 503.677 248.898 503.987 247.193L525.715 144.842C526.026 143.136 527.733 141.74 529.44 141.74H577.552C579.259 141.74 580.346 143.136 580.035 144.842L578.949 150.735C578.638 152.441 576.931 153.836 575.224 153.836H537.666C536.734 153.836 535.958 154.457 535.803 155.387L528.974 187.488C528.664 188.418 529.285 189.039 530.216 189.039H566.067C567.774 189.039 568.861 190.434 568.395 192.14L567.154 197.878C566.843 199.584 565.136 200.98 563.429 200.98H527.578C526.647 200.98 525.871 201.6 525.715 202.53L516.248 247.193C515.938 248.898 514.231 250.294 512.523 250.294Z" fill="#D8DDCF"/>
<path d="M587.096 250.294H637.225C638.932 250.294 640.64 248.898 640.95 247.193L642.192 241.3C642.502 239.594 641.416 238.198 639.708 238.198H600.288C599.356 238.198 598.891 237.578 599.046 236.647L606.496 201.755C606.651 200.825 607.427 200.204 608.358 200.204H645.761C647.468 200.204 649.331 198.809 649.641 197.103L650.883 191.365C651.193 189.659 650.107 188.263 648.4 188.263H610.841C609.91 188.263 609.444 187.643 609.6 186.713L616.428 155.387C616.584 154.457 617.36 153.836 618.291 153.836H657.401C659.108 153.836 660.816 152.441 661.126 150.735L662.368 144.842C662.678 143.136 661.592 141.74 659.884 141.74H610.065C608.358 141.74 606.651 143.136 606.34 144.842L584.612 247.193C584.302 248.898 585.388 250.294 587.096 250.294Z" fill="#D8DDCF"/>
<path d="M721.488 250.294H671.358C669.651 250.294 668.565 248.898 668.875 247.193L690.603 144.842C690.913 143.136 692.621 141.74 694.328 141.74H744.147C745.854 141.74 746.94 143.136 746.63 144.842L745.389 150.735C745.078 152.441 743.371 153.836 741.664 153.836H702.553C701.622 153.836 700.846 154.457 700.691 155.387L693.862 186.713C693.707 187.643 694.173 188.263 695.104 188.263H732.662C734.369 188.263 735.456 189.659 735.145 191.365L733.904 197.103C733.593 198.809 731.731 200.204 730.024 200.204H692.621C691.689 200.204 690.913 200.825 690.758 201.755L683.309 236.647C683.153 237.578 683.619 238.198 684.55 238.198H723.971C725.678 238.198 726.765 239.594 726.454 241.3L725.213 247.193C724.902 248.898 723.195 250.294 721.488 250.294Z" fill="#D8DDCF"/>
<path d="M750.045 250.294H759.356C761.529 250.294 762.926 248.898 763.237 247.193L766.03 234.631C766.341 232.926 765.409 231.53 763.702 231.53H754.235C752.062 231.53 750.665 232.926 750.355 234.631L747.717 247.193C747.406 248.898 748.337 250.294 750.045 250.294Z" fill="#D8DDCF"/>
</svg>
