<svg width="17" height="24" viewBox="0 0 17 24" fill="none" xmlns="http://www.w3.org/2000/svg">
<path d="M8.30774 19.8462C9.0533 19.8462 9.69236 19.2665 9.69236 18.5903C9.69236 17.9141 9.0533 15.6923 8.30774 15.6923C7.56218 15.6923 6.92313 17.9141 6.92313 18.5903C6.92313 19.2665 7.56218 19.8462 8.30774 19.8462Z" fill="#D8DDCF"/>
<path fill-rule="evenodd" clip-rule="evenodd" d="M16.5239 0H0.0914516C0.0914516 0 -0.114314 2.20287 0.0914516 3.23077C0.749461 6.51785 1.94969 9.33581 3.83226 10.887C4.47376 11.4156 5.19449 11.7971 6 12C5.19449 12.2029 4.47376 12.5844 3.83226 13.113C1.94969 14.6642 0.749461 17.4821 0.0914516 20.7692C-0.114314 21.7971 0.0914516 24 0.0914516 24H16.5239C16.5239 24 16.7297 21.7971 16.5239 20.7692C15.8659 17.4821 14.6657 14.6642 12.7831 13.113C12.1416 12.5844 11.4209 12.2029 10.6154 12C11.4209 11.7971 12.1416 11.4156 12.7831 10.887C14.6657 9.33581 15.8659 6.51785 16.5239 3.23077C16.7297 2.20287 16.5239 0 16.5239 0ZM6.45086 13.7903C7.27119 13.5837 7.84615 12.8459 7.84615 12C7.84615 11.1541 7.27119 10.4163 6.45086 10.2097C5.45813 9.95974 4.55096 9.25667 3.75032 7.98509C2.94101 6.69975 2.31714 4.94378 1.90169 2.86839C1.86213 2.67075 1.84377 2.29939 1.84665 1.84615H14.7687C14.7716 2.29939 14.7533 2.67075 14.7137 2.86839C14.2982 4.94378 13.6744 6.69975 12.8651 7.98509C12.0644 9.25667 11.1573 9.95974 10.1645 10.2097C9.34419 10.4163 8.76923 11.1541 8.76923 12C8.76923 12.8459 9.34419 13.5837 10.1645 13.7903C11.1573 14.0403 12.0644 14.7433 12.8651 16.0149C13.6744 17.3002 14.2982 19.0562 14.7137 21.1316C14.7533 21.3293 14.7716 21.7006 14.7687 22.1538H1.84665C1.84377 21.7006 1.86213 21.3293 1.90169 21.1316C2.31714 19.0562 2.94101 17.3002 3.75032 16.0149C4.55096 14.7433 5.45813 14.0403 6.45086 13.7903Z" fill="#D8DDCF"/>
</svg>
